<svg viewBox="0 0 450 510" xmlns="http://www.w3.org/2000/svg">
  <defs>
    <clipPath id="prev-front"><rect x="0"   y="0" width="225" height="510"/></clipPath>
    <clipPath id="prev-back" ><rect x="225" y="0" width="225" height="510"/></clipPath>
  </defs>

  <!-- 背景 -->
  <rect width="450" height="510" fill="#2c3e50" rx="10"/>

  <!-- ラベル・仕切り -->
  <text x="112" y="18" text-anchor="middle" font-size="11" fill="#90a4ae" font-family="sans-serif" font-weight="600">正 面</text>
  <text x="338" y="18" text-anchor="middle" font-size="11" fill="#90a4ae" font-family="sans-serif" font-weight="600">背 面</text>
  <line x1="225" y1="0" x2="225" y2="510" stroke="#546e7a" stroke-width="1" stroke-dasharray="5,3"/>

  <!-- ===================== 正面 ===================== -->
  <g clip-path="url(#prev-front)">

    <!-- 左腕（腕を約18度外側に展開） -->
    <path d="M 56,100
             C 46,116 34,158 30,198
             C 26,234 22,264 22,290
             L 28,316
             C 32,322 40,324 44,318
             L 40,290
             C 40,264 44,234 50,198
             C 56,158 64,116 68,106
             C 64,100 58,98 56,100 Z"
          fill="#b0bec5" stroke="#78909c" stroke-width="1.5"/>

    <!-- 右腕（対称） -->
    <path d="M 168,100
             C 178,116 190,158 194,198
             C 198,234 202,264 202,290
             L 196,316
             C 192,322 184,324 180,318
             L 184,290
             C 184,264 180,234 174,198
             C 168,158 160,116 156,106
             C 160,100 166,98 168,100 Z"
          fill="#b0bec5" stroke="#78909c" stroke-width="1.5"/>

    <!-- 左脚 -->
    <path d="M 68,270
             C 64,292 60,322 58,356
             C 56,382 56,404 58,422
             C 60,438 62,452 64,460
             L 50,460
             C 46,466 46,478 52,486
             C 56,492 70,496 84,494
             C 98,492 106,486 104,480
             C 102,472 98,462 90,460
             L 90,452
             C 88,438 88,422 90,404
             C 92,382 94,358 96,334
             C 98,310 98,288 96,272
             C 90,268 84,266 78,266
             C 72,266 70,268 68,270 Z"
          fill="#b0bec5" stroke="#78909c" stroke-width="1.5"/>

    <!-- 右脚（対称） -->
    <path d="M 156,270
             C 160,292 164,322 166,356
             C 168,382 168,404 166,422
             C 164,438 162,452 160,460
             L 174,460
             C 178,466 178,478 172,486
             C 168,492 154,496 140,494
             C 126,492 118,486 120,480
             C 122,472 126,462 134,460
             L 134,452
             C 136,438 136,422 134,404
             C 132,382 130,358 128,334
             C 126,310 126,288 128,272
             C 134,268 140,266 146,266
             C 152,266 154,268 156,270 Z"
          fill="#b0bec5" stroke="#78909c" stroke-width="1.5"/>

    <!-- 胴体（肩→ウエスト→ヒップ→股間） -->
    <path d="M 104,90
             C 88,90 74,93 62,100
             C 58,108 56,122 56,136
             C 56,156 60,174 66,192
             C 70,204 72,218 72,232
             C 72,250 70,266 68,278
             C 66,292 72,306 84,314
             C 94,320 104,322 112,322
             C 120,322 130,320 140,314
             C 152,306 158,292 156,278
             C 154,266 152,250 152,232
             C 152,218 154,204 158,192
             C 164,174 168,156 168,136
             C 168,122 166,108 162,100
             C 150,93 136,90 120,90 Z"
          fill="#b0bec5" stroke="#78909c" stroke-width="1.5"/>

    <!-- 首 -->
    <path d="M 104,70 C 102,78 102,86 104,90 L 120,90 C 122,86 122,78 120,70 Z"
          fill="#b0bec5" stroke="#78909c" stroke-width="1"/>

    <!-- 頭部 -->
    <ellipse cx="112" cy="46" rx="22" ry="26" fill="#b0bec5" stroke="#78909c" stroke-width="1.5"/>

    <!-- ★ CHEST ハイライト（疲労度:高） -->
    <path d="M 104,90
             C 88,90 74,93 62,100
             C 58,110 56,122 58,134
             C 62,142 70,150 82,156
             C 92,160 104,162 112,162
             C 120,162 132,160 142,156
             C 154,150 162,142 166,134
             C 168,122 166,110 162,100
             C 150,93 136,90 120,90 Z"
          fill="#1e88e5" opacity="0.7"/>

    <!-- 腹筋区切り線 -->
    <line x1="112" y1="162" x2="112" y2="275" stroke="#546e7a" stroke-width="0.8" opacity="0.6"/>
    <line x1="80"  y1="188" x2="144" y2="188" stroke="#546e7a" stroke-width="0.7" opacity="0.5"/>
    <line x1="76"  y1="218" x2="148" y2="218" stroke="#546e7a" stroke-width="0.7" opacity="0.5"/>
    <line x1="74"  y1="248" x2="150" y2="248" stroke="#546e7a" stroke-width="0.7" opacity="0.5"/>

    <!-- 鎖骨ライン -->
    <path d="M 112,100 C 96,103 80,108 68,114" stroke="#546e7a" stroke-width="0.8" fill="none" opacity="0.5"/>
    <path d="M 112,100 C 128,103 144,108 156,114" stroke="#546e7a" stroke-width="0.8" fill="none" opacity="0.5"/>

  </g><!-- /正面 -->

  <!-- ===================== 背面 ===================== -->
  <g clip-path="url(#prev-back)">

    <!-- 左腕（後ろ・展開） -->
    <path d="M 282,100
             C 272,116 260,158 256,198
             C 252,234 248,264 248,290
             L 254,316
             C 258,322 266,324 270,318
             L 266,290
             C 266,264 270,234 276,198
             C 282,158 290,116 294,106
             C 290,100 284,98 282,100 Z"
          fill="#b0bec5" stroke="#78909c" stroke-width="1.5"/>

    <!-- 右腕（後ろ・展開） -->
    <path d="M 394,100
             C 404,116 416,158 420,198
             C 424,234 428,264 428,290
             L 422,316
             C 418,322 410,324 406,318
             L 410,290
             C 410,264 406,234 400,198
             C 394,158 386,116 382,106
             C 386,100 392,98 394,100 Z"
          fill="#b0bec5" stroke="#78909c" stroke-width="1.5"/>

    <!-- 左脚（後ろ） -->
    <path d="M 294,270
             C 290,292 286,322 284,356
             C 282,382 282,404 284,422
             C 286,438 288,452 290,460
             L 276,460
             C 272,466 272,478 278,486
             C 282,492 296,496 310,494
             C 324,492 332,486 330,480
             C 328,472 324,462 316,460
             L 316,452
             C 314,438 314,422 316,404
             C 318,382 320,358 322,334
             C 324,310 324,288 322,272
             C 316,268 310,266 304,266
             C 298,266 296,268 294,270 Z"
          fill="#b0bec5" stroke="#78909c" stroke-width="1.5"/>

    <!-- 右脚（後ろ） -->
    <path d="M 382,270
             C 386,292 390,322 392,356
             C 394,382 394,404 392,422
             C 390,438 388,452 386,460
             L 400,460
             C 404,466 404,478 398,486
             C 394,492 380,496 366,494
             C 352,492 344,486 346,480
             C 348,472 352,462 360,460
             L 360,452
             C 362,438 362,422 360,404
             C 358,382 356,358 354,334
             C 352,310 352,288 354,272
             C 360,268 366,266 372,266
             C 378,266 380,268 382,270 Z"
          fill="#b0bec5" stroke="#78909c" stroke-width="1.5"/>

    <!-- 胴体（背面） -->
    <path d="M 346,90
             C 362,90 376,93 388,100
             C 392,108 394,122 394,136
             C 394,156 390,174 384,192
             C 380,204 378,218 378,232
             C 378,250 380,266 382,278
             C 384,292 378,306 366,314
             C 356,320 346,322 338,322
             C 330,322 320,320 310,314
             C 298,306 292,292 294,278
             C 296,266 298,250 298,232
             C 298,218 296,204 292,192
             C 286,174 282,156 282,136
             C 282,122 284,108 288,100
             C 300,93 314,90 330,90 Z"
          fill="#b0bec5" stroke="#78909c" stroke-width="1.5"/>

    <!-- 首（後ろ） -->
    <path d="M 346,70 C 348,78 348,86 346,90 L 330,90 C 328,86 328,78 330,70 Z"
          fill="#b0bec5" stroke="#78909c" stroke-width="1"/>

    <!-- 頭部（後ろ） -->
    <ellipse cx="338" cy="46" rx="22" ry="26" fill="#b0bec5" stroke="#78909c" stroke-width="1.5"/>

    <!-- ★ BACK ハイライト（上背部・僧帽筋 - 疲労度:中） -->
    <path d="M 346,90
             C 362,90 376,93 388,100
             C 392,110 394,122 392,134
             C 388,142 380,150 368,156
             C 358,160 346,162 338,162
             C 330,162 318,160 308,156
             C 296,150 288,142 284,134
             C 282,122 284,110 288,100
             C 300,93 314,90 330,90 Z"
          fill="#1565c0" opacity="0.65"/>

    <!-- ★ LEG ハイライト（ハムストリング - 疲労度:低） -->
    <path d="M 294,272
             C 290,295 286,325 284,358
             C 282,385 282,408 284,428
             C 290,424 294,414 296,400
             C 298,380 298,358 296,334
             C 294,312 294,288 296,274
             C 294,272 294,272 294,272 Z"
          fill="#42a5f5" opacity="0.5"/>
    <path d="M 382,272
             C 386,295 390,325 392,358
             C 394,385 394,408 392,428
             C 386,424 382,414 380,400
             C 378,380 378,358 380,334
             C 382,312 382,288 380,274
             C 382,272 382,272 382,272 Z"
          fill="#42a5f5" opacity="0.5"/>

    <!-- 脊柱ライン -->
    <line x1="338" y1="100" x2="338" y2="278" stroke="#546e7a" stroke-width="0.9" opacity="0.6"/>

    <!-- 広背筋の輪郭 -->
    <path d="M 338,110 C 316,140 298,180 300,250" stroke="#546e7a" stroke-width="0.8" fill="none" opacity="0.5"/>
    <path d="M 338,110 C 360,140 378,180 376,250" stroke="#546e7a" stroke-width="0.8" fill="none" opacity="0.5"/>

    <!-- 肩甲骨ライン -->
    <path d="M 318,125 C 314,140 314,158 318,170" stroke="#546e7a" stroke-width="0.8" fill="none" opacity="0.4"/>
    <path d="M 358,125 C 362,140 362,158 358,170" stroke="#546e7a" stroke-width="0.8" fill="none" opacity="0.4"/>

  </g><!-- /背面 -->

  <!-- 凡例 -->
  <rect x="14"  y="499" width="11" height="8" rx="2" fill="#b0bec5"/>
  <text x="30"  y="506" font-size="9" fill="#90a4ae" font-family="sans-serif">ベース</text>
  <rect x="72"  y="499" width="11" height="8" rx="2" fill="#42a5f5" opacity="0.6"/>
  <text x="88"  y="506" font-size="9" fill="#90a4ae" font-family="sans-serif">低疲労</text>
  <rect x="130" y="499" width="11" height="8" rx="2" fill="#1e88e5" opacity="0.7"/>
  <text x="146" y="506" font-size="9" fill="#90a4ae" font-family="sans-serif">中疲労</text>
  <rect x="188" y="499" width="11" height="8" rx="2" fill="#1565c0" opacity="0.8"/>
  <text x="204" y="506" font-size="9" fill="#90a4ae" font-family="sans-serif">高疲労</text>

</svg>
